<svg xmlns="http://www.w3.org/2000/svg" viewBox="0 0 19 19">
  <defs>
    <style>
      .cls-1 {
        fill: #848282;
        stroke: rgba(93,93,93,0);
      }
    </style>
  </defs>
  <g id="Group_2285" data-name="Group 2285" transform="translate(0.5 0.5)">
    <path id="Path_1532" data-name="Path 1532" class="cls-1" d="M5.4,14.4a1.8,1.8,0,1,0,1.8,1.8A1.805,1.805,0,0,0,5.4,14.4ZM0,0V1.8H1.8L5.04,8.64,3.78,10.8a3.2,3.2,0,0,0-.18.9,1.805,1.805,0,0,0,1.8,1.8H16.2V11.7H5.76a.194.194,0,0,1-.18-.18v-.09L6.39,9.9h6.66A1.641,1.641,0,0,0,14.58,9l3.24-5.85A.5.5,0,0,0,18,2.7a.85.85,0,0,0-.9-.9H3.78L2.97,0ZM14.4,14.4a1.8,1.8,0,1,0,1.8,1.8A1.805,1.805,0,0,0,14.4,14.4Z" transform="translate(0)"/>
  </g>
</svg>
